<mxfile modified="2019-11-21T07:58:30.009Z" host="Electron" agent="Mozilla/5.0 (Windows NT 10.0; Win64; x64) AppleWebKit/537.36 (KHTML, like Gecko) draw.io/12.2.2 Chrome/78.0.3904.94 Electron/7.1.0 Safari/537.36" etag="JCJ5G9LJ7EPgnisO6jiv" version="12.2.2" type="device" pages="4"><diagram id="Ht1M8jgEwFfnCIfOTk4-" name="Page-1">7V1be5s6Fv01eWw+7pfHxE56OpPMZJr2dM558aeA4tBi5HLJ7dcfCRAGJGwcc3OitF9iBAahtbS0tSVtnaiz1fPnEKwfrpEL/RNFcp9P1PmJosiaZOE/JOUlS7FowjL03PyiTcKt9wrzRClPTTwXRpULY4T82FtXEx0UBNCJK2kgDNFT9bJ75FefugZLyCTcOsBnU394bvyQv4VibtL/gN7ygT5ZNuzszArQi/M3iR6Ai55KSerFiToLEYqzT6vnGfRJ4dFyyb532XC2yFgIg7jNF37+/Sf4/vTfpf79L/XK/s9Z8Oj+/mTmt3kEfpK/8dmPW5ww81Hi5hmPX2hprJEXxGmJ6uf4P37gTDrR8ZkZOTpV9FpC/disJsjsEblHNaF+bFYT5Prt5drz5XoGSwnMUeX2Uu35UimD+L96jpLY9wI4K7gn4cRlCFwPYzJDPgpxWoACXHrnD/HKx0cy/vj04MXwdg0cUqpPuN7gtHsUxDn7ZYUe5wVP7orZsyafV89LUtFOwVOknS5DlKzTR37B/OeeXeCPC4eAuQB+TG4Uh+gXpJk7UVT875Iw5vze8/1aph9hGHu4Mpz53pLcP0bkcSA/8uF9ekf8Jl6wvEqP5qqU5573CBdED9DNX8kHd9A/B84vktHArT2apTelKs4TfC4l5XT/DNEKxuELviQ/qxhq9pVce2QCPzl+2tRkWbLzqvxQqsamnieCXD6Wxc03NQx/yCvZHhUOP4+pVdDFkpMfQv8OPV1sEs7TsinKDIXxA1qiAPhXiGCR8uknjOOXnDwgiVGVbTBwz4gQ4kO0hkGWcumRbGfMqhNC1/RzQyvOUNlTaizVtoEUg3AJ423Co2QXknffimUIfRB7j1U55sGSf/WGSFSJA5pU4YBqKdVbRCgJHZh/awMuLjLwUrosV77G56iqXX2OotS4kt1xw5ziHQ8gE20lPzqZtHHIpMlWKzJ1hzfbXH8EAmTF2oIAu5mid82Uw1oDWRGAbsNpJ6CWNDFADQEoF1CzbQ01JgaoKQA9DFBrYoDaAtBtOO0E1JZ7sbb2tbhxzaxaY9jmHsDkVtT96LPhh+BQiUPqRDlkVjjU4gu2PgDp5D1J91E0i1p/u83EzjXrwEZIE4Buw2k3oJ37jw4EVBeAHgQotSenAqhiCUAPq6H2xAAVPfOtSrrbZuu8hr7NZpPMqqvdkIaw+9V3rQdpbvEBHfA7jFEjueOZUbuM0v2541XhveUToLX3dmKNPiXUBwO074qq0dHeoqIa1Vs0jJvtrPGGVctLQ43ft43R5Jqy5O/cbxNjCPYNxL5T/W38U6mDq/lWvbc5wozd2pQc3RCwJowIPqBtfcnWxEYMNeHb4/cfWztrOx8x5Ku5pVXV3KazMYbS8mJKo2AKd4Rxt0tiYl5gTUwW2Oo62g3oxCYL6MKtfyCgnTfODV5B1a522XRJG1bMNWGYb63Su6kysal8umid+TjZbQGdmnevxcyvd4qZLLU1vqcGmiJ6UwdOtRpoNEaWpWp3SrHkt/rZcFWVTslkK9WSNcu2tOpCLlVr53Q7eDqYOsyUwve0JAw+e/H/6XPw57/IPTEPsqP5c/6I9OCFHnQ5+mgoLSuG1c8cRHbQQqmtGqI53LdWaHSont5IqS0/6t33LJablYc3B19upg9MnEOHzXR5CPnULcFKYhAMJWdvXFHLDqZRe7yYSi31w0q1luGOWfnpfz/j8Of316/zi+uvf+vXlxb641Mbb0CViLyoACXSlVfnY0pdnF3ML+ZVAimUUKXrLtMfhpT5Ivvel+DLuqZRI5AWf97BKC3C1+ni6fIafGxO1vjwlk4FFxzOGKq8BZ2mmA3N6EiSOTufN5V6E0TlmA8yB9oB0KpFTNDsUzZkAq3/ZbBUqy+oWI/6tor0kaCSaxVLNuXR0WInSaoCLS5aij0+Wqw/TBNocdHSJH1stDhzE3WBFqfR0hVldKzYoQNDYJVipVWwMlRzdKwUBitTYJXVq5oKmro6OlrsSli2+/8x0arWLGt8a5AzEY71dH9MrKr+OHt8W5Azc+mbF+MyUiT8VvGJYqTRA+9C/GkZF+VQAjK9rIJWCCPvFdwVMQyr0SMJbsS3FuXerxMmsCA/+mAebvBb6qz7pFUBLKIPlgHuHVDVqBv3BgfPwn1eBlTry8ehsV2x2+TuU9wAaglJ43dCYpKmxfgpQ+cMXyAb6+fNyWnTQDZGgd3kwi5xYFc6gP129uf1t/Mf66vH+PVfXx5eZd2//tRizgoJWcr1RZeFtuaW7r8slbo3Q+JpoiwZnNKU+ypNnhM3qzOYfgGtA1cohCtyq3WUkL9uWjq4zD3ihQY4KyR+bBqjOIJODOOEnAWut/YiwmF8AH0vvyjCbSG5BUn0kmiF3LS2rtbpLb3A8VzPTVL/dkJ+YWTw48nVMX00OVqBZQDIU3zvdwJO8afv5DwMvFX6bHKJlx084kSwyp7+O/Ei/CdAmB0k/q8En2HoeDGIPRSQR/o+WDmIPje72Is8mpv0cd46/SL5BdLXXuG3QLQAcHZikp959ihc90l+vTBJ803LziNPC+E6hA8Q2wdhWpRp4iPykzXOEEyznpabBKOIHDrYPNggkBZKgn/dJ0sPkMsCkv2MqTghCUk2Lp4duI5hkgGWlityHACd9BtOsvZcEGffTktgHSLPJTzP0MqQSDPmJP4aZGVIbnJ/7zkeOXZhBMPsuhXyswyDrOi9tIijAsdkdUoJhvla5tibGuAOhHR35eeZbF0YSYZcHzmg40VlG0njjRzUw3J2pge86d1CD4QeCD0YQg/q7giZLuwsC4LOsw9kvSdB4M0oFYIgBEEIwhiCUMwg2S0IHcT35/e/eGv4hSIIRRCKMIYiaJLRUhG6WMHAVwSeS0YoglAEoQhjOBF0OiNptxdB60sRFKEIQhGEIkxEEQyV41fk9xr68ity43sLRRCKIBRhDEUwda2tjaD2pQiaUAShCEIRJqIIltm210Cn0HevCLxQREIRhCIIRRhDEWwae263jdDB4CN3xa/Ojj6eOTEKIwaN6Mlb+aCYFVsuTwqLg0sHhgSC/NrL6lzbe438O2Hm4BbpDqYTWEfeZqJfFIOwmJipdoNEbS0vb0vnYjpYBQWzrx2dOVGbv+M6xmDA3Sy8aaPshk3Ea2VfXM6d/1zZbJtWtytSfW4Qbg28dMfwOxTHaNVYHxl2NMwRLJayl7YsB9E6e9F775nkI5v4CcMLrPHp/E9yE+6+5kmUPmvfSYfbK8kelb3qMGT7AjT2TmXL8A58A39ehq/hzS/37v7zRRgtrMulesWZ0Sno9Y7opchsO9IXv/j6xRLsBrxATisiKNaaYg4KsY2M7cIFMdgWxcPH4lyt2eRomq4OyTl2BGT2ADCt/A9ku6gSW/O5toveRSAMPg5sn/Ia3XnpChFyZ0X6Ae960QH+iq2aOJimnK7kGFsHuFV8lRbUwvG9lBHdVO2iYrQmlWHWBzh5K2p5tbtYmNI9rdiOyQ8IQrIGaJhWhRLnnbUqK+iSrCzgCoZLGDgvI9KuFpFRZmfeDWrFmGwv7MJ5QIJtb2cbJOU3GsHoJnJFyDo2bBSNsjAIwWy2qTy7+SL4dQC/nvFlAZazyP01Hs/MqpApksVpPo0hpUyW2B7ZewxP1hGAci04MO3PjrWSnrNxsPYO0du796PTbis1GWg00wGA4psMbCf0bAVe04GVKzJi1KW043Pa2blin5XOzb0Q3yhT6IDEIWWxxsI/188ZrEnfNf2ZYgPAFfsQZmFBvzgkPyQmQPapepVPqNRExfJLV8aJrK6659X+ucLpnw9r07KzwgqC3rJx9Q7lpyGdqaq5Hz8bbJP3ys9IHUIpNbPqIpbphtejEZGdjFQQMTWC68PBn0EMn0iQ3p3jxIeS1tb0+aWyH2n1M1U61z8MacHaWyxzQAZhr1Jt503r1C7/DDeetnX/Tx6Z/42pGJGZIHXezkFMZk/cxiEEK855wevhef0rAysbYYlyZPa3HvRuaG9I9rRpz8ayobSvk/nCBxHG/RaC0HkQXJ8C12EGSZRCsohg+OiRzmL/am5qVT9cKVDTaExmo7DMXwKwQnPOxLThFFubm/jkfizGP9q5/WFY7KYwuXdvUGmjGzrbinoqlX6UyZGbG7YvckLvjkz6qbP4JkQOjCLEOdUtwfmu6bmkz2ST4e/Ru6Z9sLpzweI+CfIKPEBQUKm2r8oEyGixg2pf4e8knSMsmDgtJjYqp9mPIcDYtyNTlR0zaTJvm40FYRNM3SbowQRQt9N65G4b3VyrPK/h6xVOuKSKIMR1RHFVemr8J0fDLUMRM7QMvLjjqTZk6FLXTM3eTzxnpqzK7HZn71U8nbzohwjQXBsd03U2stKwlNwyKHGDfP+l+9ZcDODuIuQ6LfgR6GjKvGmvwxKSM7Dw4xYnfEHfUpkki0DFmO3QlPRQvHBI2Y8w9qUb0uisbPb7SzdesC52VxVN97BKSct+BFoSsdQm1HdnHfqZZH5N/I4l82PNsA0TfxDZM5TaEhSu7NEtkYfhFOtHJ8tmex8I+ljLHJO0SIdgGNWIiSoYJxJDg/dxhlZ5HBH23HW2vmcIx6ToyuzuWxdADUDwuldSnlZn22ZHgjZWJNYAFGDYXrvv3wie7jYkS8U/OlEn0A23248Ebfo/vQuu6BFNqkckK7JU301GG5+67GCPiPUySqyX/QmlqfKp3jizaArk4gzhDLSA9Z1y68AFrG/hmLGFYwrHSBx04arNGZHhrQ4RnHs3nFN1e+zl0jbrPcyGXa7AL8iS7xKFqzyAqJjYPr7R52OQFvcFJkNNApKLQEuT6WGzDsuLZ+hkAWmvkQv9IWTzw8/06baLwfSNJ+SztFmf5VfogzgN+bzZ6H0GoiR1SW42fueujRujkT+/kOz3yNZ7H8J4sQIBWMLV26KLvakDMy1FLOKTVRgaDbIqjc+3Bs/i0fMtIjzDDXG4CFAM7xAazLSsCiQN9TFe5B3WAaMwxPqAsVtUubq4VZd47oxBo7fIEuvPYGNifECsNLuq44apjY8V6xnQBVaKYlm1NV8yq4ADI8VOYjQEUixSqsHZEGZYpNiJfaZAikVK523vNyxSrIfKEkixSBn26O0U64SxBVLpPne1SsXZd2VQqOz24Uxuce/mmvRuxLyqKXh8i85mM3H7XsvMuOY02ai45iy2cR/W9WGwnRuGq6TM1u1LI93xjLAa3NE7SFtLCVfyysiPVOutayqnX0GfVS4makH2UExsf32LXEu75boFIXdvQsGTdhanHcDvJvN4pc7OsOpWSBu8vem/9+d9g4ETvqxj6KaRzNqR8F3RibfV7eBaV53VWNM6w+D5uwYuJt7+n8etdVoDfFMiJ2tnCq2bqNYdA51YV8DUtE7nRBseuJDYXvixK53ZAN6UqMnOBxBKN1GlOwI6cTZkmprSaSpv8uLAxdSiL3VcWlcAP2VytvAbCK2bhNYdBZ2m763TJN4sgIGLqUVH/8i07gjcK5z9DoTWTVTrjoFOLRwiI9t1qjF2D5YTov7Ylc5oAG9K1GzhNxBKNw2lOwY6tXCI9K10sqrX5p1Z49txnLDwx65udgNgE6IjJ8K5ULeJqtsx0KmFC2RwdVNorsYrlhZd+ePStgLoKZOxhWdAaNsktO0o6NTC5TG4tumWPL7l1qLzfmTqpjcANiU6tvAGCHWbhrodA51auDkGVzeDDqmNVywtuutHpm1WA1wTIiMnMKjQtolq25h0wochIgFEinOfyVtngW3Ui38A</diagram><diagram id="AmGTx1CnqN__6KQ62PMe" name="系统部署">7V1Zk6LIFv41PBZBrmQ+qqU9M7drurrrRs+deTEQUYlBcRBr6V9/M1kUMtOlLBFruuyIFhIqgXO+s59EC/Xmz58Sbzm7i8dBZEFn/GyhWwtCQAkVX3LkJR/hBOQD0yQcFydtBx7CH0Ex6BSj63AcrGonpnEcpeGyPujHi0Xgp7UxL0nip/ppkziqX3XpTQNt4MH3In30j3CczvJRBt3t+C9BOJ2VVwaU50fmXnly8SSrmTeOnypDqG+hXhLHab41f+4FkSReSZf5n4Ng+U/yvfODd79H3PPZ6K+bfLLBa/5k8whJsEhPnvo3d+Zg3v/99m4dkoA8f1u7vxZ/4jx60bqgl9V3rS6yut1so2vxgdXnFkNWh2Ujt1YXFvRIX0oip8GzuLHuLJ1HYgCIzSRYhT+8UXaCI/aXcbhIM1aSrkVuxYi3TuNVDhf5B14UThdiOwomcqrHIElDwcVOMZzGSzG6Wnp+uJj+V+7c3mAxMokXaQE65JT7xY3JaSNvFERdz/97msTrxbgXR3EiDi3ihTijeyRhCwbIewqeK7AqCP0piOdBmryIU4qjiNok/5tCauBm4GkLQoAL8s8qACzHvAL3083kW96KjYK9r2A1MLBaY2yfWrxvdWmxwbDVZ1ZHjPSLjQ7IDlGry+WG2GXsOuEA6PWw3z2a/bAp9kOd/SrbojCjyipN4r83yhLWGVklMG6PwKhGXuBAjbouZTp1wRmoS+j9H+hT+M/say/4MvqEH/DwQWDvIHXFLMLmZQSeeUs56EfxWkzafZqFafAgsCwHn4QZrpO8KSIC5tSoyLEBpIibQIrOQMfPxIvufsyDb95i+Ms9Q//580fPYI8G3+4lHYNEPJhG00yNBEn/Mci1Ccipm5tpqWfG3moWjIudCk1zjCtonYRRVA5ZEBFH/isxfi+0UxrGUvn4gbxoRSt9Vk4YxWkaz3eqrXidSlHrbTwep6LwNpOXKJk/T6VnZseTSegHdk6JlZ0E8isYLpP4+aVBlGAEFGUGiEmbYaDjhKCGYKLbMkFv30s1gJREDOeZm1iFgJk3B1m6Q+EJvEyyjzglu1hntawwt9yZhM8Sjt3ifm5naSr94I4kBxz444Vjh8ITnoSLcZDYvrgiHIy91BNfcnwlvlexH3rRzSTy0pvsFoLxTSJml8cIkISdhulsPboBkNnLxbQpYAgfWoGFo4GCUh0U5djZQWGwcH1sdVnmywqfpWd1O2YNUndEVF5VMGMS0h3KpkRcyelwLjgxiMKR+N8TpiAYD9MgEm6R5Jtg9HItZhx6CzmczMOFF8kD90LGY7E97JVnPAnmDh8yJWCvHqcNSj7FCoNd3cpSaGOn+jExfMc5ZwcAMgCAWZxbvCMBwPJgZhcSVk/hPPJyQ6A4OTrbi3MHdYsxwfKfbkk2434cRd5yFW4d4VXqJeW1CG6Qm1z1STeWvcpOx+A0IdaUtSeHvaZ90miQXZVRpRRWOQp3SOV85XuB+P5+N/wcLtbPO8VrL/iOZghBRDWsOkOIKUJsSn7oDufLF9pqodvWD+drj/N1HoxgpiJEh8hFHS9Xg8jv03Dx/P79LnzQ74riaby6GSXCRK+k5hpAEfQNFvLxd7taZ4KBq6oKyEzK22B7z6C6479+8+gfX8XDT8aTuy/8y5epe0MNxlaLeBfjjszgSsGKvNUq9EuDpw9XALJRG2q+gRqTE6qtZX7g+5qWEUdGjOBMpeQ3Goy1xPFxfFvF68QPDutR8aDTYN98xMz0A+q/HEsCEQGEj/VnMPG5uMK9VNcVTAFQQ9QNIMwGGKDyA0l9yvyxi1mqeWZlYkFkZWJMbM4B33wU+5XTSZs4g+WGLG9AqsHLUOICdmv1icU6Mp0JaSQTjqNEbE3l1sMyCRfTrkzzH3ROlkESivuVJuS2yPfcb4dOjCRqWU50KLTwJSaG41CGhLEEwGAaLMQ9+MNVNWhQ5WqHSjpWKnZn6lxWV1xbVVbBuVCftQjBwbtxf3ZV5urZhM7U5PC04Iv+Hi+GnR/rJBjeef5M+C01p/T87IJEsTPAxC5kcjkaY48prqdWV4htFs11saxUCPkVMR1HJon+kNpXw4BRxe9EVyazuvuxflpNw3fKbFnVvrxqZnXVDIDO5G0l6zJs1W313cvD1891gy1E3ckSOreyInkFWjrX0LciXhh5IiqcxMkwu+1hGS82q7QBZ2pux3FMatuQ3GmOlXo24S5eTON9ultlZU3GjIH7PnE9d+ZAzQk8BaMsJrTn8rnGowuKLmCuwnFutNOmiJA0xXCm2+mPiLCWNqlGhHvMWlshIcXQhhwQglwHuC5U4zggQMcrH+UCxwaIlGLbxZQC4BAEmKN4nIpCajg6dPn7Ra3AZvLyv+IC2c6fUi0KRVDs3j4XajLfeyn2rgXttNUECHHVwjZymM2R41LKqIsoPhHf2OU25og5jgsdF5e9KZuLEJsSQChGAGCC+UXhzvQGi3cD96Zha0jbXSNsmQZbcB7Ysr2wBa3C1tC8+AHb18G2Xd+CcA228Dyw5XthC1uFrSF19RPCdm8G5zBuYZu4pY6GW3QW3BJnL25Rq7j9KO4dgOMxuKWt4hZouMXnwS3Yi1vcKm6PacP+SXFb5n0O47ZV9xZhLZN5Gk5FGLZ/oqaxqKey86YTFZBlWnESBc8FBLvnAKkBlApsFZCOvYBNjCClPgtGssNGwrNcXSVgGaYv3zJ2x4v+9kgb+YXdnnFr/RVITcqTbS319bGZOhmm2mRNA1pP6F+Hch2TgI2xCbcMjhCVcwTPYSoTZU6xnefJICl2t3kyudNAmuyNGnlHd9iFNDJVPQnonAjjzdraXRM1DGGulyi+eaNRmN591aBsLDdJbFbwJf4N5OW708Qbyx7ZyrEBwpjByrHbrN6bV5oWcSI5pyK52wOIUBOSNz2OtZLYiYUsrVK2Y33fxmYUVDF2VKpVMe9phe0kyCHxqy/vR67+zLfqZ83/abKFoQ41YOh2J9AgNHC3fLypPMb1QkMSjEPdHzACr2m2G7iI7Pz+NJTCvou6zID6spP7Uv0L9dADlt5/tTea6xwu/cKzc3jTnF1h8VMwWsX+38GFu+cx5mS7/P2MNXANQ0a0qmh6DAJvbvvL9bAgxgVBUm9k4qa+CIxtQ2fEdvTsSCGGomPftTjO1uJTuaS+62qIeSUGRIDOb+kpGJiH43HmyB+JAZWXZkzU1upT3ZgOso8BPeK+grm3tNer7GpHIWX3mqmdSClb5bfqxLRmHxocLbexJvsjqnVnDB9VPtbdciWjMZlAc0YjbwY0O0W93mDQ6x3nW+9b9na2FnzHDIkL1US0pC8+NUAkpD5VBb0HfGuBCO+lclrRIrc7sYjqclImbHZ2ezh1DQzd8s52PourPAtS/kJ23GV3fdbggLZUY9x0cWwaNYouDnyojyPbqzSvFgtKL5KLfJN0OkdKJ2xTOjFQU9snSyemCqL5sdJ5NnDDdsD9HtAIj0Rjq3lxV0GjVKOIMFp+3BOhybCinhm1icO0rv5L4dSQZOyT7MVTcOsZC1+507U6eQsxyXqJmdVx5VFxsoi0O/o7qd5JL7E/SwQRTw2QTnB73XqZBBBgcHtdY4TkEhvvxvHbPF99ofHPqK/2yshBhdVq2hiX/fybBBw9i8KisA5Y6LBWFda/u+v9TYa1fN3nVQdhgALbrXa1K29c4Mx2MHao63JKN+vgXl2N5lCZFtsO4Bw7wOWYAqrM2zRq9QTUv2PJ6wkGEKlFKWR8D95Fl7xea5f2EaVWf508bi7QuCnkuoq5wp5tStGehTVykSWvrKM9dVkNI3uW1SC3qYQQVtI1iF8kXcOO8BCv/OVun72liAbesur3BHUHlbe6cce0crA8qVYQgfXlX7wp558d4VNdOWuPeW/fpTiOXK40cLDyFSxX8CY/MwKOWJX33hBwYa4T7Z1RJq7Ldl0Dn4HNanxuStJ5Szn39+foHNsrlscZrVW0oGMzl4lgCXCCsWJqpIfCAIOyBZ1TwE+MpZAyrQugDQFkDCHBHcc9LpR6rZuDlPqwS2s/t9CMk1NGjR9xWtbQrSo0qPd0XTRO4/o6mZ+WPdhxFOa0HkaXDuoHe+T6y+tjzxGv/71W429uKHf3N5RfqcfQ7rpg4TEIs80Bpg52Karn4ihDNhGqBXAHMUSJ4oce7zE4qulwHBtLh4QRgADjDaVGQL246pJL+AzXWjq7Np+6NA/XnjwE9YIXZcCmiFCXIS68bK40qR7/mlbVndJKcmeSAqL8zsxFpAA4rwstix7aGsJ3NtxWuxx12O/re9zd/GVDB1m1BjCAoHVCA9gbxeZgta5Vc7F5PVSJJbX39uiCHFD8IdXNabgCt/nJqqtT01fQ4dDygjcO1ZWb0LWrie8TVa4KXqr+HFnjmPt3v9fhbd5Aq4kzfZElRUw6xhgR5GKA1WLL0Usu3QMKs3HMveN3MlSsM3CIap1bMM4nFcSvz4oj7dV7FJ8F7ZtfT90I0bnQLna3v/Sbn779vWTU/z8=</diagram><diagram name="工具框图" id="EXoxVcLPmoXd9NAVdm67">&#xa;    <mxGraphModel dx="1024" dy="534" grid="1" gridSize="10" guides="1" tooltips="1" connect="1" arrows="1" fold="1" page="1" pageScale="1" pageWidth="827" pageHeight="1169" math="0" shadow="0">&#xa;      <root>&#xa;        <mxCell id="0"/>&#xa;        <mxCell id="1" parent="0"/>&#xa;        <mxCell id="3" style="vsdxID=15;fillColor=none;gradientColor=none;strokeColor=none;spacingTop=-1;spacingBottom=-1;spacingLeft=-1;spacingRight=-1;labelBackgroundColor=none;rounded=0;html=1;whiteSpace=wrap;" parent="1" vertex="1">&#xa;          <mxGeometry x="56" y="340" width="188" height="232" as="geometry"/>&#xa;        </mxCell>&#xa;        <mxCell id="4" value="&lt;p style=&quot;align:center;margin-left:0;margin-right:0;margin-top:0px;margin-bottom:0px;text-indent:0;valign:middle;direction:ltr;&quot;&gt;&lt;font style=&quot;font-size:16px;font-family:SimSun;color:#000000;direction:ltr;letter-spacing:0px;line-height:120%;opacity:1&quot;&gt;智能电网主站安全测评&lt;/font&gt;&lt;font style=&quot;font-size:12px;font-family:Themed;color:#000000;direction:ltr;letter-spacing:0px;line-height:120%;opacity:1&quot;&gt;&lt;br/&gt;&lt;/font&gt;&lt;/p&gt;" style="verticalAlign=middle;align=center;vsdxID=16;fillColor=#dbeef3;gradientColor=none;shape=stencil(vZLBDoIwDIafZkeWsQmBM+J7LDJgcTJSpuDbO1KIoODBg7e2/9c2/1Yisq6WrSKcdQ7sRfW6cDURR8K5bmoF2vmIiJyIrLSgKrC3psC8lSM5Rld7HycM2MfGDs4emIUM8xOiRjcLdBZ/gg8x5eESl3D2Kkx4RGPEYeYZjTiWJiQVNOarmdOGIZCD7gKwTjptm5VmJFQq8LuC0shqJXW9Uu1HedNMTEWysXnHyczOVkRC07WVvaf5g5WvX+iD152U2hg8s6X+fle+hDcp8ic=);strokeColor=#000000;spacingTop=-1;spacingBottom=-1;spacingLeft=-1;spacingRight=-1;labelBackgroundColor=none;rounded=0;html=1;whiteSpace=wrap;" parent="3" vertex="1">&#xa;          <mxGeometry width="188" height="25" as="geometry"/>&#xa;        </mxCell>&#xa;        <mxCell id="5" value="" style="verticalAlign=middle;align=center;vsdxID=17;fillColor=#8fcddc;gradientColor=none;shape=stencil(vVLLEoIwDPyaHmFKKwycEf+jIwU61pYJVeDvLbYqD/XgwVuy2WSzbRDNu4a1HBHcGdAn3ovSNIjuESFCNRyEsRGiBaJ5pYHXoC+qdHnLJuYUnfV1mjC4Pjx1EDy6LNuFUXpHDo7M4Gir4MlxmLgqhvGBRJlDPCUJaboYGWEvMQRsEF0A2jAjtFrISwY1D6xYUElWL0pdz3m7gf16UqiZl4yGCXkr/slNvHETL9w8l9+8zx/srMW/UH8kbr7bBq9DqYSU7s7m9fVhWcgdJS1u);strokeColor=#000000;spacingTop=-1;spacingBottom=-1;spacingLeft=-1;spacingRight=-1;labelBackgroundColor=none;rounded=0;html=1;whiteSpace=wrap;" parent="3" vertex="1">&#xa;          <mxGeometry y="25" width="188" height="206" as="geometry"/>&#xa;        </mxCell>&#xa;        <mxCell id="6" value="&lt;font style=&quot;font-size:14px;font-family:SimSun;color:#000000;direction:ltr;letter-spacing:0px;line-height:120%;opacity:1&quot;&gt;主站性能测试工具&lt;br/&gt;&lt;/font&gt;" style="verticalAlign=middle;align=center;vsdxID=2;fillColor=#fff5d9;gradientColor=none;shape=stencil(nZBLDoAgDERP0z3SIyjew0SURgSD+Lu9kMZoXLhwN9O+tukAlrNpJg1SzDH4QW/URgNYgZTkjA4UkwJUgGXng+6DX1zLfmoymdXo17xh5zmRJ6Q42BWCfc2oJfdAr+Yv+AP9Cb7OJ3H/2JG1HNGz/84klThPVCc=);labelBackgroundColor=none;rounded=0;html=1;whiteSpace=wrap;" parent="1" vertex="1">&#xa;          <mxGeometry x="76" y="396" width="144" height="32" as="geometry"/>&#xa;        </mxCell>&#xa;        <mxCell id="7" style="vsdxID=3;fillColor=none;gradientColor=none;strokeColor=none;labelBackgroundColor=none;rounded=0;html=1;whiteSpace=wrap;" parent="1" vertex="1">&#xa;          <mxGeometry x="228" y="186" width="280" height="58" as="geometry"/>&#xa;        </mxCell>&#xa;        <mxCell id="8" style="vsdxID=4;fillColor=#918482;gradientColor=none;shape=stencil(UzV2Ls5ILEhVNTIoLinKz04tz0wpyVA1dlE1MsrMy0gtyiwBslSNXVWNndPyi1LTi/JL81Ig/IJEkEoQKze/DGRCBUSfAUiHkUElhGdoAOG7QZTmZOYhKYVJkqUYr1ITPSNLFNVGBnpmliTpMCSohSTHk2w+yRrwOgfIQERYWmZODiS+keXRIxgoBEkcxq4A);strokeColor=#164326;spacingTop=-3;spacingBottom=-3;spacingLeft=-3;spacingRight=-3;labelBackgroundColor=none;rounded=0;html=1;whiteSpace=wrap;" parent="7" vertex="1">&#xa;          <mxGeometry width="280" height="58" as="geometry"/>&#xa;        </mxCell>&#xa;        <mxCell id="9" style="vsdxID=5;fillColor=#f2dcda;gradientColor=none;shape=stencil(nZBLDoAgDERP0z3SIyjew0SURgSD+Lu9kMZoXLhwN9O+tukAlrNpJg1SzDH4QW/URgNYgZTkjA4UkwJUgGXng+6DX1zLfmoymdXo17xh5zmRJ6Q42BWCfc2oJfdAr+Yv+AP9Cb7OJ3H/2JG1HNGz/84klThPVCc=);strokeColor=#164326;labelBackgroundColor=none;rounded=0;html=1;whiteSpace=wrap;" parent="7" vertex="1">&#xa;          <mxGeometry width="280" height="58" as="geometry"/>&#xa;        </mxCell>&#xa;        <mxCell id="10" value="&lt;p style=&quot;align:center;margin-left:0;margin-right:0;margin-top:0px;margin-bottom:0px;text-indent:0;valign:middle;direction:ltr;&quot;&gt;&lt;font style=&quot;font-size:19px;font-family:SimSun;color:#164326;direction:ltr;letter-spacing:0px;line-height:120%;opacity:1&quot;&gt;&lt;b&gt;智能电网信息安全检测工具&lt;/b&gt;&lt;/font&gt;&lt;font style=&quot;font-size:14px;font-family:Themed;color:#000000;direction:ltr;letter-spacing:0px;line-height:120%;opacity:1&quot;&gt;&lt;b&gt;&lt;br/&gt;&lt;/b&gt;&lt;/font&gt;&lt;/p&gt;" style="text;vsdxID=3;fillColor=none;gradientColor=none;strokeColor=none;labelBackgroundColor=none;rounded=0;html=1;whiteSpace=wrap;verticalAlign=middle;align=center;;html=1;" parent="7" vertex="1">&#xa;          <mxGeometry width="280" height="58" as="geometry"/>&#xa;        </mxCell>&#xa;        <mxCell id="11" value="&lt;font style=&quot;font-size:14px;font-family:SimSun;color:#000000;direction:ltr;letter-spacing:0px;line-height:120%;opacity:1&quot;&gt;代码检测与审计工具&lt;br/&gt;&lt;/font&gt;" style="verticalAlign=middle;align=center;vsdxID=20;fillColor=#fff5d9;gradientColor=none;shape=stencil(nZBLDoAgDERP0z3SIyjew0SURgSD+Lu9kMZoXLhwN9O+tukAlrNpJg1SzDH4QW/URgNYgZTkjA4UkwJUgGXng+6DX1zLfmoymdXo17xh5zmRJ6Q42BWCfc2oJfdAr+Yv+AP9Cb7OJ3H/2JG1HNGz/84klThPVCc=);labelBackgroundColor=none;rounded=0;html=1;whiteSpace=wrap;" parent="1" vertex="1">&#xa;          <mxGeometry x="76" y="452" width="144" height="32" as="geometry"/>&#xa;        </mxCell>&#xa;        <mxCell id="12" value="&lt;font style=&quot;font-size:14px;font-family:SimSun;color:#000000;direction:ltr;letter-spacing:0px;line-height:120%;opacity:1&quot;&gt;主站系统自动化&lt;br/&gt;配置检测工具&lt;br/&gt;&lt;/font&gt;" style="verticalAlign=middle;align=center;vsdxID=21;fillColor=#fff5d9;gradientColor=none;shape=stencil(nZBLDoAgDERP0z3SIyjew0SURgSD+Lu9kMZoXLhwN9O+tukAlrNpJg1SzDH4QW/URgNYgZTkjA4UkwJUgGXng+6DX1zLfmoymdXo17xh5zmRJ6Q42BWCfc2oJfdAr+Yv+AP9Cb7OJ3H/2JG1HNGz/84klThPVCc=);labelBackgroundColor=none;rounded=0;html=1;whiteSpace=wrap;" parent="1" vertex="1">&#xa;          <mxGeometry x="76" y="504" width="144" height="48" as="geometry"/>&#xa;        </mxCell>&#xa;        <mxCell id="13" style="vsdxID=22;fillColor=none;gradientColor=none;strokeColor=none;spacingTop=-1;spacingBottom=-1;spacingLeft=-1;spacingRight=-1;labelBackgroundColor=none;rounded=0;html=1;whiteSpace=wrap;" parent="1" vertex="1">&#xa;          <mxGeometry x="274" y="340" width="188" height="232" as="geometry"/>&#xa;        </mxCell>&#xa;        <mxCell id="14" value="&lt;p style=&quot;align:center;margin-left:0;margin-right:0;margin-top:0px;margin-bottom:0px;text-indent:0;valign:middle;direction:ltr;&quot;&gt;&lt;font style=&quot;font-size:16px;font-family:SimSun;color:#000000;direction:ltr;letter-spacing:0px;line-height:120%;opacity:1&quot;&gt;通信网与规约安全测评&lt;/font&gt;&lt;font style=&quot;font-size:12px;font-family:Themed;color:#000000;direction:ltr;letter-spacing:0px;line-height:120%;opacity:1&quot;&gt;&lt;br/&gt;&lt;/font&gt;&lt;/p&gt;" style="verticalAlign=middle;align=center;vsdxID=23;fillColor=#ebf1df;gradientColor=none;shape=stencil(vZLBDoIwDIafZkeWsQmBM+J7LDJgcTJSpuDbO1KIoODBg7e2/9c2/1Yisq6WrSKcdQ7sRfW6cDURR8K5bmoF2vmIiJyIrLSgKrC3psC8lSM5Rld7HycM2MfGDs4emIUM8xOiRjcLdBZ/gg8x5eESl3D2Kkx4RGPEYeYZjTiWJiQVNOarmdOGIZCD7gKwTjptm5VmJFQq8LuC0shqJXW9Uu1HedNMTEWysXnHyczOVkRC07WVvaf5g5WvX+iD152U2hg8s6X+fle+hDcp8ic=);strokeColor=#000000;spacingTop=-1;spacingBottom=-1;spacingLeft=-1;spacingRight=-1;labelBackgroundColor=none;rounded=0;html=1;whiteSpace=wrap;" parent="13" vertex="1">&#xa;          <mxGeometry width="188" height="25" as="geometry"/>&#xa;        </mxCell>&#xa;        <mxCell id="15" value="" style="verticalAlign=middle;align=center;vsdxID=24;fillColor=#c4d6a0;gradientColor=none;shape=stencil(vVLLEoIwDPyaHmFKKwycEf+jIwU61pYJVeDvLbYqD/XgwVuy2WSzbRDNu4a1HBHcGdAn3ovSNIjuESFCNRyEsRGiBaJ5pYHXoC+qdHnLJuYUnfV1mjC4Pjx1EDy6LNuFUXpHDo7M4Gir4MlxmLgqhvGBRJlDPCUJaboYGWEvMQRsEF0A2jAjtFrISwY1D6xYUElWL0pdz3m7gf16UqiZl4yGCXkr/slNvHETL9w8l9+8zx/srMW/UH8kbr7bBq9DqYSU7s7m9fVhWcgdJS1u);strokeColor=#000000;spacingTop=-1;spacingBottom=-1;spacingLeft=-1;spacingRight=-1;labelBackgroundColor=none;rounded=0;html=1;whiteSpace=wrap;" parent="13" vertex="1">&#xa;          <mxGeometry y="25" width="188" height="206" as="geometry"/>&#xa;        </mxCell>&#xa;        <mxCell id="16" value="&lt;font style=&quot;font-size:14px;font-family:SimSun;color:#000000;direction:ltr;letter-spacing:0px;line-height:120%;opacity:1&quot;&gt;通信规约模糊测试工具&lt;br/&gt;&lt;/font&gt;" style="verticalAlign=middle;align=center;vsdxID=25;fillColor=#fff5d9;gradientColor=none;shape=stencil(nZBLDoAgDERP0z3SIyjew0SURgSD+Lu9kMZoXLhwN9O+tukAlrNpJg1SzDH4QW/URgNYgZTkjA4UkwJUgGXng+6DX1zLfmoymdXo17xh5zmRJ6Q42BWCfc2oJfdAr+Yv+AP9Cb7OJ3H/2JG1HNGz/84klThPVCc=);labelBackgroundColor=none;rounded=0;html=1;whiteSpace=wrap;" parent="1" vertex="1">&#xa;          <mxGeometry x="290" y="380" width="156" height="32" as="geometry"/>&#xa;        </mxCell>&#xa;        <mxCell id="17" value="&lt;font style=&quot;font-size:14px;font-family:SimSun;color:#000000;direction:ltr;letter-spacing:0px;line-height:120%;opacity:1&quot;&gt;规约分析检测工具&lt;br/&gt;&lt;/font&gt;" style="verticalAlign=middle;align=center;vsdxID=26;fillColor=#fff5d9;gradientColor=none;shape=stencil(nZBLDoAgDERP0z3SIyjew0SURgSD+Lu9kMZoXLhwN9O+tukAlrNpJg1SzDH4QW/URgNYgZTkjA4UkwJUgGXng+6DX1zLfmoymdXo17xh5zmRJ6Q42BWCfc2oJfdAr+Yv+AP9Cb7OJ3H/2JG1HNGz/84klThPVCc=);labelBackgroundColor=none;rounded=0;html=1;whiteSpace=wrap;" parent="1" vertex="1">&#xa;          <mxGeometry x="290" y="428" width="156" height="32" as="geometry"/>&#xa;        </mxCell>&#xa;        <mxCell id="18" value="&lt;font style=&quot;font-size:14px;font-family:SimSun;color:#000000;direction:ltr;letter-spacing:0px;line-height:120%;opacity:1&quot;&gt;无线网络分析工具&lt;br/&gt;&lt;/font&gt;" style="verticalAlign=middle;align=center;vsdxID=27;fillColor=#fff5d9;gradientColor=none;shape=stencil(nZBLDoAgDERP0z3SIyjew0SURgSD+Lu9kMZoXLhwN9O+tukAlrNpJg1SzDH4QW/URgNYgZTkjA4UkwJUgGXng+6DX1zLfmoymdXo17xh5zmRJ6Q42BWCfc2oJfdAr+Yv+AP9Cb7OJ3H/2JG1HNGz/84klThPVCc=);labelBackgroundColor=none;rounded=0;html=1;whiteSpace=wrap;" parent="1" vertex="1">&#xa;          <mxGeometry x="290" y="476" width="156" height="32" as="geometry"/>&#xa;        </mxCell>&#xa;        <mxCell id="19" style="vsdxID=28;fillColor=none;gradientColor=none;strokeColor=none;spacingTop=-1;spacingBottom=-1;spacingLeft=-1;spacingRight=-1;labelBackgroundColor=none;rounded=0;html=1;whiteSpace=wrap;glass=0;shadow=0;" parent="1" vertex="1">&#xa;          <mxGeometry x="496" y="340" width="188" height="232" as="geometry"/>&#xa;        </mxCell>&#xa;        <mxCell id="20" value="&lt;p style=&quot;align:center;margin-left:0;margin-right:0;margin-top:0px;margin-bottom:0px;text-indent:0;valign:middle;direction:ltr;&quot;&gt;&lt;font style=&quot;font-size:16px;font-family:SimSun;color:#000000;direction:ltr;letter-spacing:0px;line-height:120%;opacity:1&quot;&gt;智能电网终端安全测评&lt;/font&gt;&lt;font style=&quot;font-size:12px;font-family:Themed;color:#000000;direction:ltr;letter-spacing:0px;line-height:120%;opacity:1&quot;&gt;&lt;br/&gt;&lt;/font&gt;&lt;/p&gt;" style="verticalAlign=middle;align=center;vsdxID=29;fillColor=#fcebdd;gradientColor=none;shape=stencil(vZLBDoIwDIafZkeWsQmBM+J7LDJgcTJSpuDbO1KIoODBg7e2/9c2/1Yisq6WrSKcdQ7sRfW6cDURR8K5bmoF2vmIiJyIrLSgKrC3psC8lSM5Rld7HycM2MfGDs4emIUM8xOiRjcLdBZ/gg8x5eESl3D2Kkx4RGPEYeYZjTiWJiQVNOarmdOGIZCD7gKwTjptm5VmJFQq8LuC0shqJXW9Uu1HedNMTEWysXnHyczOVkRC07WVvaf5g5WvX+iD152U2hg8s6X+fle+hDcp8ic=);strokeColor=#000000;spacingTop=-1;spacingBottom=-1;spacingLeft=-1;spacingRight=-1;labelBackgroundColor=none;rounded=0;html=1;whiteSpace=wrap;" parent="19" vertex="1">&#xa;          <mxGeometry width="188" height="25" as="geometry"/>&#xa;        </mxCell>&#xa;        <mxCell id="21" value="" style="verticalAlign=middle;align=center;vsdxID=30;fillColor=#fbd7bb;gradientColor=none;shape=stencil(vVLLEoIwDPyaHmFKKwycEf+jIwU61pYJVeDvLbYqD/XgwVuy2WSzbRDNu4a1HBHcGdAn3ovSNIjuESFCNRyEsRGiBaJ5pYHXoC+qdHnLJuYUnfV1mjC4Pjx1EDy6LNuFUXpHDo7M4Gir4MlxmLgqhvGBRJlDPCUJaboYGWEvMQRsEF0A2jAjtFrISwY1D6xYUElWL0pdz3m7gf16UqiZl4yGCXkr/slNvHETL9w8l9+8zx/srMW/UH8kbr7bBq9DqYSU7s7m9fVhWcgdJS1u);strokeColor=#000000;spacingTop=-1;spacingBottom=-1;spacingLeft=-1;spacingRight=-1;labelBackgroundColor=none;rounded=0;html=1;whiteSpace=wrap;" parent="19" vertex="1">&#xa;          <mxGeometry y="25" width="188" height="206" as="geometry"/>&#xa;        </mxCell>&#xa;        <mxCell id="22" value="&lt;font style=&quot;font-size:14px;font-family:SimSun;color:#000000;direction:ltr;letter-spacing:0px;line-height:120%;opacity:1&quot;&gt;终端系统漏洞扫描工具&lt;br/&gt;&lt;/font&gt;" style="verticalAlign=middle;align=center;vsdxID=31;fillColor=#fff5d9;gradientColor=none;shape=stencil(nZBLDoAgDERP0z3SIyjew0SURgSD+Lu9kMZoXLhwN9O+tukAlrNpJg1SzDH4QW/URgNYgZTkjA4UkwJUgGXng+6DX1zLfmoymdXo17xh5zmRJ6Q42BWCfc2oJfdAr+Yv+AP9Cb7OJ3H/2JG1HNGz/84klThPVCc=);labelBackgroundColor=none;rounded=0;html=1;whiteSpace=wrap;" parent="1" vertex="1">&#xa;          <mxGeometry x="512" y="396" width="156" height="32" as="geometry"/>&#xa;        </mxCell>&#xa;        <mxCell id="23" value="&lt;font style=&quot;font-size:14px;font-family:SimSun;color:#000000;direction:ltr;letter-spacing:0px;line-height:120%;opacity:1&quot;&gt;终端漏洞利用工具&lt;br/&gt;&lt;/font&gt;" style="verticalAlign=middle;align=center;vsdxID=32;fillColor=#fff5d9;gradientColor=none;shape=stencil(nZBLDoAgDERP0z3SIyjew0SURgSD+Lu9kMZoXLhwN9O+tukAlrNpJg1SzDH4QW/URgNYgZTkjA4UkwJUgGXng+6DX1zLfmoymdXo17xh5zmRJ6Q42BWCfc2oJfdAr+Yv+AP9Cb7OJ3H/2JG1HNGz/84klThPVCc=);labelBackgroundColor=none;rounded=0;html=1;whiteSpace=wrap;" parent="1" vertex="1">&#xa;          <mxGeometry x="512" y="452" width="156" height="32" as="geometry"/>&#xa;        </mxCell>&#xa;        <mxCell id="24" value="&lt;font style=&quot;font-size:14px;font-family:SimSun;color:#000000;direction:ltr;letter-spacing:0px;line-height:120%;opacity:1&quot;&gt;终端系统自动化配置检测工具&lt;br/&gt;&lt;/font&gt;" style="verticalAlign=middle;align=center;vsdxID=33;fillColor=#fff5d9;gradientColor=none;shape=stencil(nZBLDoAgDERP0z3SIyjew0SURgSD+Lu9kMZoXLhwN9O+tukAlrNpJg1SzDH4QW/URgNYgZTkjA4UkwJUgGXng+6DX1zLfmoymdXo17xh5zmRJ6Q42BWCfc2oJfdAr+Yv+AP9Cb7OJ3H/2JG1HNGz/84klThPVCc=);labelBackgroundColor=none;rounded=0;html=1;whiteSpace=wrap;" parent="1" vertex="1">&#xa;          <mxGeometry x="512" y="504" width="156" height="48" as="geometry"/>&#xa;        </mxCell>&#xa;        <mxCell id="25" value="&lt;font style=&quot;font-size: 14px ; font-family: &amp;#34;simsun&amp;#34; ; color: #000000 ; direction: ltr ; letter-spacing: 0px ; line-height: 120% ; opacity: 1&quot;&gt;网络性能测试工具&lt;br&gt;&lt;/font&gt;" style="verticalAlign=middle;align=center;vsdxID=34;fillColor=#fff5d9;gradientColor=none;shape=stencil(nZBLDoAgDERP0z3SIyjew0SURgSD+Lu9kMZoXLhwN9O+tukAlrNpJg1SzDH4QW/URgNYgZTkjA4UkwJUgGXng+6DX1zLfmoymdXo17xh5zmRJ6Q42BWCfc2oJfdAr+Yv+AP9Cb7OJ3H/2JG1HNGz/84klThPVCc=);labelBackgroundColor=none;rounded=0;html=1;whiteSpace=wrap;" parent="1" vertex="1">&#xa;          <mxGeometry x="290" y="524" width="156" height="32" as="geometry"/>&#xa;        </mxCell>&#xa;        <mxCell id="2" value="连接线" parent="0"/>&#xa;        <mxCell id="26" style="vsdxID=37;edgeStyle=none;startArrow=none;endArrow=block;startSize=5;endSize=5;strokeColor=#000000;spacingTop=0;spacingBottom=0;spacingLeft=0;spacingRight=0;verticalAlign=middle;html=1;labelBackgroundColor=#ffffff;rounded=0;exitX=0.5;exitY=1.206896551724138;exitDx=0;exitDy=0;exitPerimeter=0;entryX=0.5;entryY=0;entryDx=0;entryDy=0;entryPerimeter=0;" parent="2" source="7" target="19" edge="1">&#xa;          <mxGeometry relative="1" as="geometry">&#xa;            <mxPoint as="offset"/>&#xa;            <Array as="points">&#xa;              <mxPoint x="368" y="274"/>&#xa;              <mxPoint x="590" y="274"/>&#xa;            </Array>&#xa;          </mxGeometry>&#xa;        </mxCell>&#xa;        <mxCell id="27" style="vsdxID=36;edgeStyle=none;startArrow=none;endArrow=block;startSize=5;endSize=5;strokeColor=#000000;spacingTop=0;spacingBottom=0;spacingLeft=0;spacingRight=0;verticalAlign=middle;html=1;labelBackgroundColor=#ffffff;rounded=0;exitX=0.5;exitY=1.206896551724138;exitDx=0;exitDy=0;exitPerimeter=0;entryX=0.5;entryY=0;entryDx=0;entryDy=0;entryPerimeter=0;" parent="2" source="7" target="3" edge="1">&#xa;          <mxGeometry relative="1" as="geometry">&#xa;            <mxPoint as="offset"/>&#xa;            <Array as="points">&#xa;              <mxPoint x="368" y="274"/>&#xa;              <mxPoint x="150" y="274"/>&#xa;            </Array>&#xa;          </mxGeometry>&#xa;        </mxCell>&#xa;        <mxCell id="28" style="vsdxID=35;edgeStyle=none;startArrow=none;endArrow=block;startSize=5;endSize=5;strokeColor=#000000;spacingTop=0;spacingBottom=0;spacingLeft=0;spacingRight=0;verticalAlign=middle;html=1;labelBackgroundColor=#ffffff;rounded=0;exitX=0.5;exitY=1.206896551724138;exitDx=0;exitDy=0;exitPerimeter=0;entryX=0.5;entryY=0;entryDx=0;entryDy=0;entryPerimeter=0;" parent="2" source="7" target="13" edge="1">&#xa;          <mxGeometry relative="1" as="geometry">&#xa;            <mxPoint x="10" as="offset"/>&#xa;            <Array as="points"/>&#xa;          </mxGeometry>&#xa;        </mxCell>&#xa;      </root>&#xa;    </mxGraphModel>&#xa;  </diagram><diagram name="页-2" id="kEGYo53soFvvYLXar2TO">&#xa;    <mxGraphModel dx="1408" dy="748" grid="1" gridSize="10" guides="1" tooltips="1" connect="1" arrows="1" fold="1" page="1" pageScale="1" pageWidth="827" pageHeight="1169" math="0" shadow="0">&#xa;      <root>&#xa;        <mxCell id="0"/>&#xa;        <mxCell id="1" parent="0"/>&#xa;      </root>&#xa;    </mxGraphModel>&#xa;  </diagram></mxfile>